<?xml version="1.0" encoding="UTF-8" standalone="no"?>
<!-- Created with Inkscape (http://www.inkscape.org/) -->

<svg
   xmlns:dc="http://purl.org/dc/elements/1.1/"
   xmlns:cc="http://creativecommons.org/ns#"
   xmlns:rdf="http://www.w3.org/1999/02/22-rdf-syntax-ns#"
   xmlns:svg="http://www.w3.org/2000/svg"
   xmlns="http://www.w3.org/2000/svg"
   xmlns:xlink="http://www.w3.org/1999/xlink"
   xmlns:sodipodi="http://sodipodi.sourceforge.net/DTD/sodipodi-0.dtd"
   xmlns:inkscape="http://www.inkscape.org/namespaces/inkscape"
   width="1000"
   height="819.62097"
   viewBox="0 0 264.58333 216.85805"
   version="1.1"
   id="svg8"
   sodipodi:docname="Fox News II.svg"
   inkscape:version="0.92.2 (5c3e80d, 2017-08-06)">
  <defs
     id="defs2" />
  <sodipodi:namedview
     id="base"
     pagecolor="#ffffff"
     bordercolor="#666666"
     borderopacity="1.0"
     inkscape:pageopacity="0.0"
     inkscape:pageshadow="2"
     inkscape:zoom="0.35"
     inkscape:cx="503.6296"
     inkscape:cy="354.79896"
     inkscape:document-units="px"
     inkscape:current-layer="layer1"
     showgrid="false"
     units="px"
     inkscape:window-width="1366"
     inkscape:window-height="705"
     inkscape:window-x="-8"
     inkscape:window-y="-8"
     inkscape:window-maximized="1" />
  <metadata
     id="metadata5">
    <rdf:RDF>
      <cc:Work
         rdf:about="">
        <dc:format>image/svg+xml</dc:format>
        <dc:type
           rdf:resource="http://purl.org/dc/dcmitype/StillImage" />
        <dc:title></dc:title>
      </cc:Work>
    </rdf:RDF>
  </metadata>
  <g
     inkscape:label="Layer 1"
     inkscape:groupmode="layer"
     id="layer1"
     transform="translate(0,-80.141932)">
    <use
       height="1052.3622"
       width="744.09448"
       y="0"
       x="0"
       xlink:href="#id38"
       id="use3772"
       transform="matrix(3.9540222,0,0,-3.8937716,191.3409,206.1122)" />
    <use
       id="use9530"
       xlink:href="#id125"
       x="0"
       y="0"
       width="744.09448"
       height="1052.3622"
       transform="matrix(1.0825657,2.0384928,1.725872,-0.91654744,-131.66932,219.68495)" />
    <use
       id="use9540"
       xlink:href="#id128"
       x="0"
       y="0"
       width="744.09448"
       height="1052.3622"
       transform="matrix(1.3888597,2.6152508,2.0322448,-1.0792542,-131.97558,221.85098)" />
    <use
       id="use9550"
       xlink:href="#id131"
       x="0"
       y="0"
       width="744.09448"
       height="1052.3622"
       transform="matrix(2.2349876,4.2085267,2.9198786,-1.5506482,-130.10458,220.28838)" />
    <use
       id="use9560"
       xlink:href="#id134"
       x="0"
       y="0"
       width="744.09448"
       height="1052.3622"
       transform="matrix(2.3911667,0,0,-0.45270046,-129.30685,219.69699)" />
    <use
       id="use9578"
       xlink:href="#id140"
       x="0"
       y="0"
       width="744.09448"
       height="1052.3622"
       transform="matrix(0,-0.5383716,-2.700967,0,-128.13753,221.78596)" />
    <use
       id="use9588"
       xlink:href="#id143"
       x="0"
       y="0"
       width="744.09448"
       height="1052.3622"
       transform="matrix(-1.0660821,-4.7845539,-2.1876038,0.48744029,-129.83146,223.76584)" />
    <use
       id="use9598"
       xlink:href="#id146"
       x="0"
       y="0"
       width="744.09448"
       height="1052.3622"
       transform="matrix(2.3868161,0,0,-0.4527891,-132.07728,219.69702)" />
    <use
       id="use9608"
       xlink:href="#id149"
       x="0"
       y="0"
       width="744.09448"
       height="1052.3622"
       transform="matrix(2.3866758,0,0,-0.45247114,-132.0773,223.99026)" />
    <use
       id="use9618"
       xlink:href="#id152"
       x="0"
       y="0"
       width="744.09448"
       height="1052.3622"
       transform="matrix(-1.5863117,-1.5863117,-1.5863036,1.5863036,-127.13587,220.24595)" />
    <use
       id="use9628"
       xlink:href="#id155"
       x="0"
       y="0"
       width="744.09448"
       height="1052.3622"
       transform="matrix(-1.9551741,-1.9551741,-1.9551723,1.9551723,-126.76626,222.61891)" />
    <use
       id="use9638"
       xlink:href="#id158"
       x="0"
       y="0"
       width="744.09448"
       height="1052.3622"
       transform="matrix(2.3896186,0,0,-0.45616082,-129.3053,223.99032)" />
    <use
       height="1052.3622"
       width="744.09448"
       y="0"
       x="0"
       xlink:href="#id191"
       id="use10134"
       transform="matrix(3.9535517,0,0,-3.803239,-10.930625,304.90643)" />
    <use
       id="use10500"
       xlink:href="#id226"
       x="0"
       y="0"
       width="744.09448"
       height="1052.3622"
       transform="matrix(31.450564,0,0,-15.768548,45.136143,188.80372)" />
    <path
       style="fill-rule:nonzero;stroke:none;stroke-width:12.29075718"
       d="M 44.799562,80.142028 0,293.44809 v 3.5519 H 0.29475489 L 75.538893,80.142028 Z M 104.28703,80.166414 0.56512358,296.99999 H 1.7573965 l 37.3999415,-59.13335 0.044,-17.51246 H 50.233443 L 89.733781,157.90007 V 138.62119 H 101.92688 L 138.89795,80.166414 Z M 92.364839,141.16583 v 69.87281 h 5.29e-4 20.365662 l 0.0122,-22.59062 h 20.05818 V 169.38544 H 112.915 v -9.11991 h 24.40952 l -1.33965,-19.0997 z m 79.730141,0.0981 c -19.76355,0 -35.77826,15.78133 -35.77826,35.22533 0,19.45625 16.01471,35.22533 35.77826,35.22533 19.76352,0 35.79098,-15.76908 35.79098,-35.22533 0,-19.444 -16.02746,-35.22533 -35.79098,-35.22533 z m 26.31482,0 20.0831,33.65242 -20.83271,36.02424 22.04936,-0.0239 10.0169,-17.17054 10.26287,17.19492 h 22.54133 v -5.3e-4 l -21.68092,-36.25804 19.50525,-33.41862 h -22.40614 l -8.39415,14.51562 -8.67725,-14.51562 z m -26.41289,13.45853 c 3.4414,0 6.44007,3.03571 6.44007,6.41569 l -0.13519,29.70663 h 5.3e-4 c 0,3.37996 -2.86349,6.04724 -6.30489,6.04724 -3.45369,0 -6.24393,-2.75318 -6.24393,-6.13313 l 0.0122,-29.62074 c 0,-3.37998 2.7775,-6.41569 6.23121,-6.41569 z m 69.27057,65.95193 c -14.66287,0 -23.6228,9.0091 -23.6228,21.15238 0,10.47175 6.02252,15.63417 18.47307,19.3091 7.28842,2.20007 11.17206,2.02768 11.17206,6.71044 0,2.48273 -2.29802,4.41284 -6.18189,4.41284 -5.93643,0 -9.35325,-2.66713 -10.54545,-8.00132 l -15.46191,3.40452 c 2.61794,12.32766 11.73768,19.49306 25.68768,19.49306 7.53423,0 13.87638,-2.66711 18.39939,-7.53428 3.49057,-3.77325 5.3957,-8.83687 5.3957,-14.17103 0,-5.69062 -1.83143,-10.3857 -5.32201,-13.6059 -4.27716,-3.95762 -9.26738,-4.96559 -14.663,-6.5265 -6.50182,-1.84362 -10.0662,-2.028 -10.0662,-5.80126 0,-2.48272 2.29869,-4.59679 5.6295,-4.59679 4.523,0 7.2147,1.84333 8.87393,6.44007 l 14.03584,-4.69488 c -3.49056,-10.38569 -11.02491,-15.99045 -21.80391,-15.99045 z m -141.786113,2.0776 v 63.81338 H 141.15949 V 271.66912 H 115.53331 V 260.8162 h 20.80832 v -13.7904 h -20.80832 v -9.37755 h 25.30651 v -14.89626 z m 44.480423,0 14.87187,63.81338 h 14.95775 l 7.31268,-36.319 7.55918,36.319 h 14.62589 l 14.95776,-63.81338 h -13.27405 l -7.95202,36.87193 -7.80464,-36.87193 h -13.74109 l -7.3869,37.2409 -7.71823,-37.2409 z m -64.45272,0.16063 v 32.07792 L 60.322968,222.93593 H 41.8377 l -0.15957,63.50643 16.346703,-0.0366 V 249.6197 l 21.901986,36.82264 h 15.4741 v -63.50591 z"
       id="path10618"
       inkscape:connector-curvature="0" />
    <use
       id="use10732"
       xlink:href="#id243"
       x="0"
       y="0"
       width="744.09448"
       height="1052.3622"
       transform="matrix(6.5897499,0,0,-6.58316,113.58243,282.59678)" />
    <use
       id="use11258"
       xlink:href="#id292"
       x="0"
       y="0"
       width="744.09448"
       height="1052.3622"
       transform="matrix(-7.4246633,-10.599084,-12.318785,8.622086,112.48764,304.86527)" />
    <use
       id="use11330"
       xlink:href="#id301"
       x="0"
       y="0"
       width="744.09448"
       height="1052.3622"
       transform="matrix(8.5086725,8.5799333,8.5086701,-8.5799297,-70.56923,326.00003)" />
    <use
       id="use11340"
       xlink:href="#id304"
       x="0"
       y="0"
       width="744.09448"
       height="1052.3622"
       transform="matrix(-9.3961273,2.5387747,2.6540868,9.9881473,-58.273494,317.79955)" />
    <use
       id="use12378"
       xlink:href="#id351"
       x="0"
       y="0"
       width="744.09448"
       height="1052.3622"
       transform="matrix(10.976958,10.976958,10.976952,-10.976952,-94.273968,287.27438)" />
    <use
       id="use12388"
       xlink:href="#id354"
       x="0"
       y="0"
       width="744.09448"
       height="1052.3622"
       transform="matrix(0,-4.6300089,-4.7265731,0,-90.286647,288.42182)" />
    <use
       id="use12398"
       xlink:href="#id357"
       x="0"
       y="0"
       width="744.09448"
       height="1052.3622"
       transform="matrix(0,-4.6300089,-4.7266087,0,-71.584512,288.42182)" />
    <use
       height="1052.3622"
       width="744.09448"
       y="0"
       x="0"
       xlink:href="#id399"
       id="use14232"
       transform="matrix(17.120263,0,0,-11.402107,19.537489,149.84021)" />
    <use
       id="use14246"
       xlink:href="#id404"
       x="0"
       y="0"
       width="744.09448"
       height="1052.3622"
       transform="matrix(4.5195777,0,0,-6.3274869,-110.07867,149.2901)" />
    <use
       id="use14296"
       xlink:href="#id411"
       x="0"
       y="0"
       width="744.09448"
       height="1052.3622"
       transform="matrix(23.343568,0,0,-19.429711,-89.078287,151.733)" />
    <use
       id="use14306"
       xlink:href="#id415"
       x="0"
       y="0"
       width="744.09448"
       height="1052.3622"
       transform="matrix(23.900336,0,0,-14.293037,-56.08953,150.3463)" />
    <use
       height="1052.3622"
       width="744.09448"
       y="0"
       x="0"
       xlink:href="#id416"
       id="use14358"
       transform="matrix(29.935593,0,0,-8.3530202,80.509814,148.54059)" />
  </g>
</svg>
